<svg id="_33-TTARP" data-name="33-TTARP" xmlns="http://www.w3.org/2000/svg" viewBox="0 0 40 40">
  <title>33-TTARP</title>
  <g id="Main-Navigation">
    <g id="REBRAND-main-navigation">
      <g id="Main-Navigation---Desktop"><path
        id="Shape"
        class="cls-1"
        fill="#fa3c00"
        d="M29.62,18.82v3.73a2.14,2.14,0,0,1-2.13,2.13h-0.4a0.13,0.13,0,0,0-.13.13V26a3.21,3.21,0,0,1-3.2,3.2H21.33a0.09,0.09,0,0,0-.11.08A1.39,1.39,0,0,1,20,30a1.33,1.33,0,0,1-1.31-1.63,1.28,1.28,0,0,1,1.07-1,1.32,1.32,0,0,1,1.41.69,0.14,0.14,0,0,0,.11.08h2.45A2.14,2.14,0,0,0,25.89,26v-1.2a0.13,0.13,0,0,0-.13-0.13H24.82a0.53,0.53,0,0,1-.53-0.53V17.22a0.53,0.53,0,0,1,.53-0.53h0.53a5.6,5.6,0,0,0-5.6-5.6H19.22a5.6,5.6,0,0,0-5.6,5.6h0.53a0.53,0.53,0,0,1,.53.53v6.93a0.53,0.53,0,0,1-.53.53H11.49a2.14,2.14,0,0,1-2.13-2.13V18.82a2.14,2.14,0,0,1,2.13-2.13h0A7.74,7.74,0,0,1,19.22,9h0.53a7.74,7.74,0,0,1,7.73,7.73h0A2.14,2.14,0,0,1,29.62,18.82Z"/></g>
    </g>
  </g>
</svg>